# xmcd
#
# Track frame offsets: 
#        150
#        22500
#        31437
#        44338
#        55351
#        72900
#        89997
#        104697
#        118584
#        136789
#        149913
#        165438
#        183047
#        197295
#        208818
#        226244
#        239552
#        253953
#        264602
#        275358
#        286373
#        297700
#        310485
#        323976
#
# Disc length: 4585 seconds
#
# Revision: 0
# Processed by: cddbd v1.5.2PL0 Copyright (c) Steve Scherf et al.
# Submitted via: ExactAudioCopy v0.95b3
#
DISCID=7b11e718
DTITLE=Tony Joe White  - Swamp Music The Complete Monument Recordings 
DTITLE=Disc 1
DYEAR=1900
DGENRE=
TTITLE0=Willie And Laura Mae Jones
TTITLE1=Soul Francisco
TTITLE2=Aspen Colorado
TTITLE3=Whompt Out On You
TTITLE4=Don't Steal My Love
TTITLE5=Polk Salad Annie
TTITLE6=Who's Making Love
TTITLE7=Scratch My Back
TTITLE8=Little Green Apples
TTITLE9=Wichita Lineman
TTITLE10=The Look Of Love
TTITLE11=Willie And Laura Mae Jones (alternate version)
TTITLE12=I Protest
TTITLE13=A Man Can Only Stand Just So Much Pain
TTITLE14=Toil and Trouble (early version)
TTITLE15=Georgia Pines
TTITLE16=It's Not What You Got
TTITLE17=Prison Song
TTITLE18=Hung Up On You
TTITLE19=Ten More Miles To Louisiana
TTITLE20=Let The Party Roll On
TTITLE21=Watching The Trains Go By (alternate version)
TTITLE22=Georgia Pines (alternate version)
TTITLE23=Baby Please Don't Go
EXTD=
EXTT0=
EXTT1=
EXTT2=
EXTT3=
EXTT4=
EXTT5=
EXTT6=
EXTT7=
EXTT8=
EXTT9=
EXTT10=
EXTT11=
EXTT12=
EXTT13=
EXTT14=
EXTT15=
EXTT16=
EXTT17=
EXTT18=
EXTT19=
EXTT20=
EXTT21=
EXTT22=
EXTT23=
PLAYORDER=
